<?xml version="1.0" standalone="no"?>
<svg xmlns="http://www.w3.org/2000/svg" viewBox="0 0 212.44 52.96" width="212.44" height="52.96"><rect fill="#0019ff" width="212.44" height="52.96" x="0" y="0"></rect><path fill="white" fill-rule="nonzero" d="M21.40 20.32L21.40 20.32Q21.40 24.36 18.44 26.66Q15.48 28.96 10.88 28.96L10.88 28.96Q7.24 28.96 3.84 26.96L3.84 26.96Q2.16 25.92 1.08 24.02Q0 22.12 0 19.68L0 19.68L5.04 19.44Q5.04 21.60 6.88 22.80Q8.72 24 10.96 24L10.96 24Q15.96 24 15.96 20.48L15.96 20.48Q15.96 17.60 12.56 17.08L12.56 17.08L7.92 16.60Q4.44 16.08 2.40 14.12Q0.36 12.16 0.36 8.48Q0.36 4.80 3.28 2.40Q6.20 0 10.66 0Q15.12 0 17.84 2.26Q20.56 4.52 20.56 8.08L20.56 8.08L15.60 8.32Q14.92 4.84 10.92 4.84L10.92 4.84Q8.48 4.84 7.10 5.88Q5.72 6.92 5.72 8.34Q5.72 9.76 6.72 10.58Q7.72 11.40 9.20 11.60L9.20 11.60L13.76 12.08Q21.40 13.12 21.40 20.32ZM44.60 23.76L44.60 28.72L34.52 28.72Q29.72 28.72 27.78 27.06Q25.84 25.40 25.84 21.20L25.84 21.20L25.84 0.24L44.60 0.24L44.60 5.20L31.40 5.20L31.40 11.88L40.64 11.88L40.24 16.84L31.40 16.84L31.40 20.80Q31.40 22.48 32.16 23.12Q32.92 23.76 34.92 23.76L34.92 23.76L44.60 23.76ZM67.60 23.76L67.60 28.72L59.12 28.72Q54.32 28.72 52.18 26.86Q50.04 25 50.04 20.80L50.04 20.80L50.04 0.24L55.60 0.24L55.60 20.80Q55.60 22.48 56.36 23.12Q57.12 23.76 59.12 23.76L59.12 23.76L67.60 23.76ZM89.60 23.76L89.60 28.72L81.12 28.72Q76.32 28.72 74.18 26.86Q72.04 25 72.04 20.80L72.04 20.80L72.04 0.24L77.60 0.24L77.60 20.80Q77.60 22.48 78.36 23.12Q79.12 23.76 81.12 23.76L81.12 23.76L89.60 23.76ZM110.32 24.04L110.32 28.72L96.68 28.72Q94.92 28.72 93.68 28Q92.44 27.28 92.44 25.60L92.44 25.60Q92.44 24.20 93.44 22.88L93.44 22.88Q93.80 22.44 94.64 21.52L94.64 21.52L98.92 16.76Q100.76 14.92 101.84 13.42Q102.92 11.92 103.44 11.16Q103.96 10.40 104.24 9.84L104.24 9.84Q104.92 8.48 104.92 7.52Q104.92 6.56 104.18 5.62Q103.44 4.68 101.50 4.68Q99.56 4.68 98.82 5.80Q98.08 6.92 98.08 8.96L98.08 8.96L92.84 8.96Q92.84 6.92 93.16 5.46Q93.48 4 94.40 2.68L94.40 2.68Q96.20 0 101.84 0L101.84 0Q106.04 0 108.32 1.72Q110.60 3.44 110.60 6.64L110.60 6.64Q110.60 8.60 109.70 10.70Q108.80 12.80 107.80 14.08Q106.80 15.36 105.44 16.92Q104.08 18.48 103.84 18.80L103.84 18.80L99.32 24.04L110.32 24.04ZM136.60 20.52L136.60 20.52Q136.60 24.48 134.46 26.60Q132.32 28.72 128.48 28.72L128.48 28.72L124.64 28.72Q119.92 28.72 117.94 27.08Q115.96 25.44 115.96 21.40L115.96 21.40L115.96 0.24L128 0.24Q132.08 0.24 134.14 2.28Q136.20 4.32 136.20 8.04L136.20 8.04Q136.20 10.20 135.10 11.72Q134 13.24 132.68 13.88L132.68 13.88Q136.60 15.72 136.60 20.52ZM121.52 11.36L127.56 11.36Q130.64 11.36 130.64 8.28Q130.64 5.20 127.56 5.20L127.56 5.20L121.52 5.20L121.52 11.36ZM131.04 20.24L131.04 20.24Q131.04 18.32 130.36 17.34Q129.68 16.36 127.92 16.36L127.92 16.36L121.52 16.36L121.52 20.84Q121.52 22.48 122.34 23.12Q123.16 23.76 125.04 23.76L125.04 23.76L127.92 23.76Q131.04 23.76 131.04 20.24ZM157.68 0.24L163.20 0.24L163.20 18.96Q163.20 23.60 160.06 26.28Q156.92 28.96 152.32 28.96Q147.72 28.96 144.58 26.28Q141.44 23.60 141.44 18.96L141.44 18.96L141.44 0.24L147 0.24L147 18.76Q147 21.40 148.46 22.70Q149.92 24 152.32 24Q154.72 24 156.20 22.70Q157.68 21.40 157.68 18.76L157.68 18.76L157.68 0.24ZM182.40 0.24L188.44 0.24L179.88 17.04L179.88 28.72L174.36 28.72L174.36 17.04L165.80 0.24L171.84 0.24L177.16 11.72L182.40 0.24Z" transform="translate(12 12) scale(1)"></path></svg>